PathFileType	4	(X/Y/Z)	C:\Users\chris\Documents\GitHub\baseballds\vids\pitch6_Sports2D\pitch6_Sports2D_m_person00.trc
DataRate	CameraRate	NumFrames	NumMarkers	Units	OrigDataRate	OrigDataStartFrame	OrigNumFrames
30	30	6	22	m	30	69	186
Frame#	Time	Hip			RHip			RKnee			RAnkle			RBigToe			RSmallToe			RHeel			LHip			LKnee			LAnkle			LBigToe			LSmallToe			LHeel			Neck			Head			Nose			RShoulder			RElbow			RWrist			LShoulder			LElbow			LWrist		
		X1	Y1	Z1	X2	Y2	Z2	X3	Y3	Z3	X4	Y4	Z4	X5	Y5	Z5	X6	Y6	Z6	X7	Y7	Z7	X8	Y8	Z8	X9	Y9	Z9	X10	Y10	Z10	X11	Y11	Z11	X12	Y12	Z12	X13	Y13	Z13	X14	Y14	Z14	X15	Y15	Z15	X16	Y16	Z16	X17	Y17	Z17	X18	Y18	Z18	X19	Y19	Z19	X20	Y20	Z20	X21	Y21	Z21	X22	Y22	Z22
69	2.3	5.325311201641619	0.712156821223722	0.0	5.143314563192771	0.5271371940975905	0.0	5.711716534397377	0.0510107558241188	0.0	6.224987383137439	-0.3855261141926468	0.0	6.400243700727271	-0.5394690651318931	0.0	6.266187240285215	-0.6172336359049581	0.0	6.33800351490858	-0.40164326131560874	0.0	5.56444498619705	0.8503364219472513	0.0	6.2065402917665455	0.44259301989776795	0.0	6.822906832365162	0.15047345059047898	0.0	6.909904579154097	-0.0832988388058034	0.0	7.0341583085756145	0.027901552571885074	0.0	6.920952136860018	0.1354524479377264	0.0	4.43871438163804	1.4181627859384724	0.0	4.111269537557034	1.7870574395575693	0.0	4.457483405796013	1.727695339966577	0.0	4.257780309001211	1.024972307180092	0.0	4.505048125405058	0.5819845432651043	0.0	4.880516140594194	0.7951034472496673	0.0	4.921041622830357	1.58780379942171	0.0	5.450749541757145	1.3762650186924064	0.0	5.4215824888181805	1.092685222480681	0.0
70	2.3333333333333335	5.332688412540728	0.7145491332421563	0.0	5.149581591750454	0.5305801910670084	0.0	5.718319220465091	0.05250202914121796	0.0	6.2310948112385995	-0.3844431388658537	0.0	6.3986005298523905	-0.5432710805731142	0.0	6.268355054685407	-0.6181339858011947	0.0	6.344418122098672	-0.4044575485592926	0.0	5.5717012786019655	0.8519654399419861	0.0	6.207152534955824	0.44193736577145254	0.0	6.82594777932921	0.1510772700892628	0.0	6.908519767473437	-0.0862120367210321	0.0	7.033588686766913	0.023277623292802238	0.0	6.924087864533269	0.13747245139198908	0.0	4.449244512135479	1.4221768139885596	0.0	4.117604963959888	1.7921253234500971	0.0	4.443854431716923	1.7160861277364787	0.0	4.267883290131203	1.0311108691341628	0.0	4.4988517912320525	0.5850520797930687	0.0	4.868570818217687	0.7900980014078107	0.0	4.92479018449611	1.5883297000355148	0.0	5.453180933282061	1.3790772684733636	0.0	5.413929896975998	1.095310191147253	0.0
71	2.3666666666666667	5.3379269123313335	0.7173149073794495	0.0	5.154870650576548	0.5355273094760511	0.0	5.723546698703261	0.05467684229689709	0.0	6.232675402015547	-0.3816955402176742	0.0	6.401591688933983	-0.5481390289583377	0.0	6.271245698167106	-0.6195913233324108	0.0	6.34758551225941	-0.40060331536402655	0.0	5.573887305528014	0.8535781466270019	0.0	6.208971627485117	0.44230708036175853	0.0	6.829135155867533	0.15012879072981122	0.0	6.9109423553570215	-0.08946470719560382	0.0	7.036580690325137	0.02029699008141889	0.0	6.928315586912571	0.13839393643961082	0.0	4.45805645214882	1.423594469128263	0.0	4.121824588720422	1.793014561539999	0.0	4.427825044196545	1.7028301878748853	0.0	4.275263676381231	1.0360885816547836	0.0	4.503561634498389	0.5904545599826342	0.0	4.877736498853112	0.7878021064049776	0.0	4.926922984330374	1.5882050671869903	0.0	5.460073772276296	1.3759503856786641	0.0	5.401347542055661	1.0892684231342966	0.0
72	2.4	5.340372364533783	0.7231524812798228	0.0	5.160213844022322	0.54129791033029	0.0	5.726044397077937	0.05801005271039345	0.0	6.231915194293177	-0.37852664240626194	0.0	6.4073498097558605	-0.5483980946415478	0.0	6.276290060794067	-0.617861072316634	0.0	6.3523953431247895	-0.39512996364651093	0.0	5.5740158396591415	0.8570859993856494	0.0	6.211392677471413	0.4455047998026736	0.0	6.833561752173512	0.14918811442264168	0.0	6.914096548959103	-0.09178243173633452	0.0	7.041120053135757	0.020377760120207724	0.0	6.934996616165603	0.13840804139336363	0.0	4.464553168430127	1.4239500242939596	0.0	4.124063153779388	1.791884892089372	0.0	4.418614163815613	1.691078855665805	0.0	4.278762009499762	1.0392887667106445	0.0	4.517650501527086	0.5976911652773619	0.0	4.903638294586931	0.7946097347669581	0.0	4.927607488067402	1.5900203000791342	0.0	5.465700040470205	1.37415748332579	0.0	5.3972763904638885	1.0850684319518276	0.0
73	2.433333333333333	5.342294583689077	0.7319610805817371	0.0	5.165990329235759	0.5474307477369226	0.0	5.7267402471310245	0.06309833754724596	0.0	6.231924994576797	-0.37593631745920625	0.0	6.4112446849941715	-0.5401153566788042	0.0	6.280656569871354	-0.6117130485168297	0.0	6.3589895565080905	-0.39378169528298046	0.0	5.577082083000948	0.8624030573923475	0.0	6.212656403862276	0.4507318675009263	0.0	6.838935671717092	0.1495185172214539	0.0	6.913854013316676	-0.09011114806307301	0.0	7.044921585485587	0.02270198791784434	0.0	6.943583190638413	0.13823002341630966	0.0	4.469023678516525	1.4253391613592694	0.0	4.124967234706226	1.7894363452939115	0.0	4.420103183792525	1.6818774825800298	0.0	4.280796382444877	1.0429168433971865	0.0	4.530384061027013	0.6097187258506773	0.0	4.925419877231563	0.8071451225423356	0.0	4.927208076652959	1.5942499569570603	0.0	5.464978034344064	1.3789839921998002	0.0	5.407001672055455	1.0888688276389962	0.0
74	2.466666666666667	5.3429051383866755	0.7401448421210907	0.0	5.1680598936456015	0.553674124893472	0.0	5.727438462027819	0.0693245710164236	0.0	6.232713184093153	-0.3736489994293951	0.0	6.413201477768135	-0.5285407063028428	0.0	6.281581215045519	-0.604525686145519	0.0	6.3599055247220075	-0.392294288599934	0.0	5.5815870085721135	0.8689987816222993	0.0	6.21365949501502	0.45595020031583144	0.0	6.8407200946344435	0.15241018779365156	0.0	6.913642473800408	-0.08332130562789772	0.0	7.0482244908770495	0.028102884119474644	0.0	6.948072268016593	0.13982655803167815	0.0	4.472647935590289	1.427832345522714	0.0	4.12665563433899	1.7866051225244122	0.0	4.427678784457389	1.6759648656194606	0.0	4.2835780445805325	1.047091534897202	0.0	4.53478929336859	0.6214867575157903	0.0	4.930642492952863	0.8142919706430706	0.0	4.927381159334585	1.5994740396560307	0.0	5.461785377845729	1.3867542345198771	0.0	5.419447787019254	1.0972502739310643	0.0
